<?xml version="1.0" encoding="UTF-8" standalone="no"?>
<!DOCTYPE svg PUBLIC "-//W3C//DTD SVG 1.1//EN" "http://www.w3.org/Graphics/SVG/1.1/DTD/svg11.dtd">
<svg xmlns="http://www.w3.org/2000/svg" version="1.1" viewBox="0.00 0.00 1765.00 437.00">
<g stroke-width="2.00" fill="none" stroke-linecap="butt">
<path stroke="#808080" vector-effect="non-scaling-stroke" d="
  M 1105.04 99.29
  A 0.45 0.45 0.0 0 1 1105.50 99.74
  L 1105.50 144.25
  A 0.50 0.50 0.0 0 1 1105.00 144.75
  L 1076.73 144.75
  A 0.38 0.38 0.0 0 0 1076.43 145.37
  L 1130.83 213.50
  Q 1131.20 213.96 1131.57 213.50
  L 1186.05 145.34
  Q 1186.52 144.75 1185.76 144.75
  L 1157.21 144.75
  A 0.72 0.72 0.0 0 1 1156.49 144.03
  Q 1156.51 109.08 1156.49 74.04
  C 1156.48 64.07 1155.23 56.75 1143.75 56.75
  C 794.52 56.76 445.29 57.01 96.07 56.29
  C 80.73 56.25 66.70 61.37 53.74 69.05
  C 33.66 80.95 24.36 100.14 24.38 123.25
  Q 24.41 150.04 24.49 176.82
  C 24.61 218.95 58.86 242.54 97.85 242.51
  Q 136.14 242.48 174.43 242.75
  C 185.56 242.82 194.95 245.63 200.10 256.42
  Q 203.69 263.94 203.74 271.75
  Q 203.82 284.70 203.72 318.92
  C 203.66 341.54 195.05 352.18 171.75 352.23
  Q 138.28 352.29 104.82 351.96
  C 73.44 351.66 74.65 328.37 74.91 303.82
  Q 75.01 293.94 73.66 290.37
  C 69.19 278.53 51.76 277.09 41.11 279.28
  C 30.56 281.45 24.78 286.77 24.60 297.76
  C 24.09 329.63 20.82 358.48 48.71 378.76
  Q 67.67 392.55 89.50 394.80
  Q 93.60 395.22 109.49 395.24
  Q 145.96 395.28 182.45 395.22
  C 208.61 395.18 241.28 379.01 250.14 352.91
  Q 254.03 341.46 254.28 332.25
  Q 254.86 311.16 254.42 267.19
  C 254.22 246.92 247.06 227.67 229.83 215.93
  C 215.01 205.84 199.56 199.98 181.50 200.00
  Q 146.73 200.04 111.95 199.97
  Q 97.24 199.94 92.31 198.35
  C 79.64 194.27 75.10 182.53 75.01 169.00
  Q 74.93 156.03 74.81 130.51
  C 74.74 115.64 82.07 101.11 98.43 99.83
  C 110.47 98.89 122.89 99.62 135.00 99.45
  Q 148.56 99.26 155.00 99.26
  Q 609.22 99.23 1063.43 99.26
  C 1074.14 99.26 1091.15 99.72 1105.04 99.29"
/>
<path stroke="#808080" vector-effect="non-scaling-stroke" d="
  M 1546.59 193.48
  Q 1546.84 149.88 1546.42 105.66
  Q 1546.36 98.84 1545.56 96.57
  C 1542.17 86.85 1523.99 86.29 1517.23 91.86
  Q 1513.14 95.22 1513.05 101.52
  C 1512.15 167.25 1512.75 233.07 1512.76 298.81
  C 1512.76 306.56 1513.96 313.64 1522.01 315.73
  C 1531.81 318.27 1546.34 316.82 1546.47 303.25
  Q 1546.73 275.04 1546.56 247.23
  A 2.52 2.49 65.6 0 1 1547.16 245.60
  Q 1601.31 181.63 1655.78 118.10
  C 1659.77 113.45 1664.58 108.11 1661.56 101.97
  C 1658.10 94.93 1648.62 85.76 1639.82 88.51
  C 1636.29 89.62 1633.90 92.32 1631.45 95.20
  Q 1589.60 144.34 1547.44 193.80
  Q 1546.58 194.81 1546.59 193.48"
/>
<path stroke="#808080" vector-effect="non-scaling-stroke" d="
  M 1265.24 101.89
  A 13.34 13.34 0.0 0 0 1251.90 88.55
  L 1244.86 88.55
  A 13.34 13.34 0.0 0 0 1231.52 101.89
  L 1231.52 303.29
  A 13.34 13.34 0.0 0 0 1244.86 316.63
  L 1251.90 316.63
  A 13.34 13.34 0.0 0 0 1265.24 303.29
  L 1265.24 101.89"
/>
<path stroke="#808080" vector-effect="non-scaling-stroke" d="
  M 1429.16 256.00
  Q 1400.07 183.36 1371.19 110.64
  C 1366.76 99.50 1363.76 92.53 1350.71 89.62
  C 1338.08 86.80 1311.52 88.42 1311.51 107.01
  Q 1311.48 202.66 1311.51 298.33
  Q 1311.52 306.44 1312.85 309.36
  C 1316.41 317.13 1327.52 317.61 1334.74 316.02
  C 1346.00 313.55 1345.25 303.66 1345.25 294.58
  Q 1345.25 222.50 1345.25 150.41
  Q 1345.25 149.84 1345.82 149.78
  L 1352.20 149.14
  Q 1352.88 149.08 1353.13 149.71
  Q 1383.60 225.70 1414.28 301.60
  C 1421.42 319.27 1445.92 318.43 1460.12 312.50
  Q 1470.73 308.07 1470.73 296.25
  Q 1470.79 199.28 1470.62 102.31
  Q 1470.60 91.65 1460.60 89.23
  C 1450.45 86.78 1437.30 89.02 1437.29 102.25
  Q 1437.23 178.56 1437.25 254.89
  Q 1437.25 255.46 1436.69 255.53
  L 1429.90 256.43
  Q 1429.36 256.50 1429.16 256.00"
/>
<path stroke="#808080" vector-effect="non-scaling-stroke" d="
  M 538.24 181.37
  A 13.29 13.29 0.0 0 0 524.95 168.08
  L 517.81 168.08
  A 13.29 13.29 0.0 0 0 504.52 181.37
  L 504.52 382.87
  A 13.29 13.29 0.0 0 0 517.81 396.16
  L 524.95 396.16
  A 13.29 13.29 0.0 0 0 538.24 382.87
  L 538.24 181.37"
/>
<path stroke="#808080" vector-effect="non-scaling-stroke" d="
  M 658.48 181.41
  A 13.34 13.34 0.0 0 0 645.14 168.07
  L 638.10 168.07
  A 13.34 13.34 0.0 0 0 624.76 181.41
  L 624.76 382.83
  A 13.34 13.34 0.0 0 0 638.10 396.17
  L 645.14 396.17
  A 13.34 13.34 0.0 0 0 658.48 382.83
  L 658.48 181.41"
/>
<path stroke="#808080" vector-effect="non-scaling-stroke" d="
  M 323.18 381.82
  Q 338.40 395.05 358.75 395.02
  Q 386.74 394.98 414.75 394.83
  C 436.58 394.71 459.95 380.79 462.22 357.49
  Q 463.53 343.98 463.03 330.44
  C 462.54 317.23 446.20 314.91 436.70 318.90
  C 432.04 320.85 430.00 324.30 429.60 329.52
  C 428.56 342.85 432.48 364.99 412.93 366.20
  Q 400.98 366.94 372.59 366.49
  Q 358.22 366.27 355.36 365.38
  C 344.56 362.01 343.29 351.02 343.26 340.75
  Q 343.17 300.17 343.30 220.43
  C 343.31 210.23 346.92 198.92 358.95 198.18
  C 374.58 197.22 391.30 197.94 407.31 198.02
  Q 416.02 198.06 419.36 199.58
  C 439.94 208.92 417.69 243.74 440.79 246.95
  C 451.84 248.49 462.46 246.57 462.81 232.99
  C 463.16 219.53 463.93 205.01 458.54 193.91
  C 452.27 181.02 439.24 173.51 425.54 170.45
  Q 420.14 169.24 408.37 169.25
  Q 385.58 169.25 362.78 169.25
  Q 351.86 169.26 345.95 170.61
  C 321.91 176.14 309.47 192.83 309.46 217.25
  Q 309.44 280.08 309.53 342.90
  C 309.55 358.11 311.17 371.38 323.18 381.82"
/>
<path stroke="#808080" vector-effect="non-scaling-stroke" d="
  M 714.41 382.34
  Q 729.55 395.08 749.50 395.06
  Q 774.47 395.03 799.43 394.98
  Q 811.52 394.96 816.84 393.70
  C 836.75 389.01 851.77 375.35 853.25 354.25
  Q 854.02 343.15 853.71 320.99
  C 853.26 288.89 853.26 256.69 853.65 224.59
  Q 853.79 212.93 852.75 205.27
  C 850.17 186.48 834.66 174.80 817.05 170.64
  Q 811.08 169.22 798.85 169.24
  Q 773.42 169.27 748.00 169.26
  Q 738.26 169.26 726.71 174.20
  C 707.01 182.63 700.26 197.23 700.25 217.50
  Q 700.23 281.71 700.27 345.91
  C 700.27 360.20 703.02 372.76 714.41 382.34"
/>
<path stroke="#808080" vector-effect="non-scaling-stroke" d="
  M 910.42 382.33
  Q 925.23 394.79 944.75 394.88
  Q 969.46 394.98 994.17 394.99
  Q 1007.42 395.00 1013.59 393.52
  C 1026.07 390.54 1039.28 382.24 1045.18 370.36
  C 1049.30 362.07 1049.73 351.86 1049.74 343.25
  Q 1049.79 313.05 1049.73 220.16
  C 1049.72 203.57 1046.89 189.05 1032.59 179.17
  C 1021.32 171.38 1010.34 169.23 995.80 169.24
  Q 972.64 169.25 949.48 169.26
  Q 938.58 169.26 932.75 170.61
  C 914.36 174.90 899.31 187.15 897.04 207.01
  Q 896.31 213.36 896.30 219.75
  Q 896.23 281.95 896.27 344.14
  C 896.28 359.07 898.42 372.24 910.42 382.33"
/>
<path stroke="#808080" vector-effect="non-scaling-stroke" d="
  M 1644.67 303.32
  C 1647.00 306.71 1652.05 312.94 1656.50 312.53
  C 1668.78 311.39 1679.60 298.24 1671.52 286.23
  Q 1654.05 260.27 1618.48 208.74
  C 1615.17 203.94 1612.96 200.16 1606.28 201.00
  C 1592.47 202.72 1585.81 217.41 1593.73 229.02
  Q 1619.10 266.24 1644.67 303.32"
/>
<path stroke="#808080" vector-effect="non-scaling-stroke" d="
  M 1690.66 395.22
  L 1690.76 428.03
  Q 1690.76 428.83 1691.39 428.33
  L 1759.96 373.98
  Q 1760.40 373.64 1759.96 373.29
  L 1691.44 318.98
  Q 1690.75 318.44 1690.74 319.32
  L 1690.42 351.79
  Q 1690.41 352.25 1689.96 352.25
  L 1155.50 352.25
  Q 1154.25 352.25 1154.25 351.00
  L 1154.25 219.14
  Q 1154.25 218.52 1153.64 218.52
  L 1104.59 218.51
  Q 1104.01 218.51 1104.01 219.09
  Q 1103.97 291.99 1104.02 364.88
  C 1104.03 373.01 1104.70 379.19 1108.56 385.44
  C 1114.54 395.14 1126.12 395.15 1136.25 395.17
  Q 1205.59 395.31 1274.94 395.05
  C 1413.35 394.52 1551.76 394.70 1690.17 394.75
  Q 1690.65 394.75 1690.66 395.22"
/>
<path stroke="#808080" vector-effect="non-scaling-stroke" d="
  M 604.77 277.42
  A 23.43 23.43 0.0 0 0 581.34 253.99
  A 23.43 23.43 0.0 0 0 557.91 277.42
  A 23.43 23.43 0.0 0 0 581.34 300.85
  A 23.43 23.43 0.0 0 0 604.77 277.42"
/>
<path stroke="#808080" vector-effect="non-scaling-stroke" d="
  M 819.6141 215.7153
  A 17.93 17.93 0.0 0 0 801.6528 197.8167
  L 751.8329 197.9036
  A 17.93 17.93 0.0 0 0 733.9342 215.8649
  L 734.1659 348.5847
  A 17.93 17.93 0.0 0 0 752.1272 366.4833
  L 801.9471 366.3964
  A 17.93 17.93 0.0 0 0 819.8458 348.4351
  L 819.6141 215.7153"
/>
<path stroke="#808080" vector-effect="non-scaling-stroke" d="
  M 1015.8144 215.8852
  A 18.10 18.10 0.0 0 0 997.6828 197.8168
  L 948.0029 197.9035
  A 18.10 18.10 0.0 0 0 929.9345 216.0350
  L 930.1656 348.4148
  A 18.10 18.10 0.0 0 0 948.2972 366.4832
  L 997.9771 366.3965
  A 18.10 18.10 0.0 0 0 1016.0455 348.2650
  L 1015.8144 215.8852"
/>
</g>

<path fill="#000000" d="
  M 1105.04 99.29
  C 1091.15 99.72 1074.14 99.26 1063.43 99.26
  Q 609.22 99.23 155.00 99.26
  Q 148.56 99.26 135.00 99.45
  C 122.89 99.62 110.47 98.89 98.43 99.83
  C 82.07 101.11 74.74 115.64 74.81 130.51
  Q 74.93 156.03 75.01 169.00
  C 75.10 182.53 79.64 194.27 92.31 198.35
  Q 97.24 199.94 111.95 199.97
  Q 146.73 200.04 181.50 200.00
  C 199.56 199.98 215.01 205.84 229.83 215.93
  C 247.06 227.67 254.22 246.92 254.42 267.19
  Q 254.86 311.16 254.28 332.25
  Q 254.03 341.46 250.14 352.91
  C 241.28 379.01 208.61 395.18 182.45 395.22
  Q 145.96 395.28 109.49 395.24
  Q 93.60 395.22 89.50 394.80
  Q 67.67 392.55 48.71 378.76
  C 20.82 358.48 24.09 329.63 24.60 297.76
  C 24.78 286.77 30.56 281.45 41.11 279.28
  C 51.76 277.09 69.19 278.53 73.66 290.37
  Q 75.01 293.94 74.91 303.82
  C 74.65 328.37 73.44 351.66 104.82 351.96
  Q 138.28 352.29 171.75 352.23
  C 195.05 352.18 203.66 341.54 203.72 318.92
  Q 203.82 284.70 203.74 271.75
  Q 203.69 263.94 200.10 256.42
  C 194.95 245.63 185.56 242.82 174.43 242.75
  Q 136.14 242.48 97.85 242.51
  C 58.86 242.54 24.61 218.95 24.49 176.82
  Q 24.41 150.04 24.38 123.25
  C 24.36 100.14 33.66 80.95 53.74 69.05
  C 66.70 61.37 80.73 56.25 96.07 56.29
  C 445.29 57.01 794.52 56.76 1143.75 56.75
  C 1155.23 56.75 1156.48 64.07 1156.49 74.04
  Q 1156.51 109.08 1156.49 144.03
  A 0.72 0.72 0.0 0 0 1157.21 144.75
  L 1185.76 144.75
  Q 1186.52 144.75 1186.05 145.34
  L 1131.57 213.50
  Q 1131.20 213.96 1130.83 213.50
  L 1076.43 145.37
  A 0.38 0.38 0.0 0 1 1076.73 144.75
  L 1105.00 144.75
  A 0.50 0.50 0.0 0 0 1105.50 144.25
  L 1105.50 99.74
  A 0.45 0.45 0.0 0 0 1105.04 99.29
  Z"
/>
<path fill="#000000" d="
  M 1546.59 193.48
  Q 1546.58 194.81 1547.44 193.80
  Q 1589.60 144.34 1631.45 95.20
  C 1633.90 92.32 1636.29 89.62 1639.82 88.51
  C 1648.62 85.76 1658.10 94.93 1661.56 101.97
  C 1664.58 108.11 1659.77 113.45 1655.78 118.10
  Q 1601.31 181.63 1547.16 245.60
  A 2.52 2.49 65.6 0 0 1546.56 247.23
  Q 1546.73 275.04 1546.47 303.25
  C 1546.34 316.82 1531.81 318.27 1522.01 315.73
  C 1513.96 313.64 1512.76 306.56 1512.76 298.81
  C 1512.75 233.07 1512.15 167.25 1513.05 101.52
  Q 1513.14 95.22 1517.23 91.86
  C 1523.99 86.29 1542.17 86.85 1545.56 96.57
  Q 1546.36 98.84 1546.42 105.66
  Q 1546.84 149.88 1546.59 193.48
  Z"
/>
<rect fill="#000000" x="1231.52" y="88.55" width="33.72" height="228.08" rx="13.34"/>
<path fill="#000000" d="
  M 1429.90 256.43
  L 1436.69 255.53
  Q 1437.25 255.46 1437.25 254.89
  Q 1437.23 178.56 1437.29 102.25
  C 1437.30 89.02 1450.45 86.78 1460.60 89.23
  Q 1470.60 91.65 1470.62 102.31
  Q 1470.79 199.28 1470.73 296.25
  Q 1470.73 308.07 1460.12 312.50
  C 1445.92 318.43 1421.42 319.27 1414.28 301.60
  Q 1383.60 225.70 1353.13 149.71
  Q 1352.88 149.08 1352.20 149.14
  L 1345.82 149.78
  Q 1345.25 149.84 1345.25 150.41
  Q 1345.25 222.50 1345.25 294.58
  C 1345.25 303.66 1346.00 313.55 1334.74 316.02
  C 1327.52 317.61 1316.41 317.13 1312.85 309.36
  Q 1311.52 306.44 1311.51 298.33
  Q 1311.48 202.66 1311.51 107.01
  C 1311.52 88.42 1338.08 86.80 1350.71 89.62
  C 1363.76 92.53 1366.76 99.50 1371.19 110.64
  Q 1400.07 183.36 1429.16 256.00
  Q 1429.36 256.50 1429.90 256.43
  Z"
/>
<rect fill="#000000" x="504.52" y="168.08" width="33.72" height="228.08" rx="13.29"/>
<rect fill="#000000" x="624.76" y="168.07" width="33.72" height="228.10" rx="13.34"/>
<path fill="#000000" d="
  M 323.18 381.82
  C 311.17 371.38 309.55 358.11 309.53 342.90
  Q 309.44 280.08 309.46 217.25
  C 309.47 192.83 321.91 176.14 345.95 170.61
  Q 351.86 169.26 362.78 169.25
  Q 385.58 169.25 408.37 169.25
  Q 420.14 169.24 425.54 170.45
  C 439.24 173.51 452.27 181.02 458.54 193.91
  C 463.93 205.01 463.16 219.53 462.81 232.99
  C 462.46 246.57 451.84 248.49 440.79 246.95
  C 417.69 243.74 439.94 208.92 419.36 199.58
  Q 416.02 198.06 407.31 198.02
  C 391.30 197.94 374.58 197.22 358.95 198.18
  C 346.92 198.92 343.31 210.23 343.30 220.43
  Q 343.17 300.17 343.26 340.75
  C 343.29 351.02 344.56 362.01 355.36 365.38
  Q 358.22 366.27 372.59 366.49
  Q 400.98 366.94 412.93 366.20
  C 432.48 364.99 428.56 342.85 429.60 329.52
  C 430.00 324.30 432.04 320.85 436.70 318.90
  C 446.20 314.91 462.54 317.23 463.03 330.44
  Q 463.53 343.98 462.22 357.49
  C 459.95 380.79 436.58 394.71 414.75 394.83
  Q 386.74 394.98 358.75 395.02
  Q 338.40 395.05 323.18 381.82
  Z"
/>
<path fill="#000000" d="
  M 714.41 382.34
  C 703.02 372.76 700.27 360.20 700.27 345.91
  Q 700.23 281.71 700.25 217.50
  C 700.26 197.23 707.01 182.63 726.71 174.20
  Q 738.26 169.26 748.00 169.26
  Q 773.42 169.27 798.85 169.24
  Q 811.08 169.22 817.05 170.64
  C 834.66 174.80 850.17 186.48 852.75 205.27
  Q 853.79 212.93 853.65 224.59
  C 853.26 256.69 853.26 288.89 853.71 320.99
  Q 854.02 343.15 853.25 354.25
  C 851.77 375.35 836.75 389.01 816.84 393.70
  Q 811.52 394.96 799.43 394.98
  Q 774.47 395.03 749.50 395.06
  Q 729.55 395.08 714.41 382.34
  Z
  M 819.6141 215.7153
  A 17.93 17.93 0.0 0 0 801.6528 197.8167
  L 751.8329 197.9036
  A 17.93 17.93 0.0 0 0 733.9342 215.8649
  L 734.1659 348.5847
  A 17.93 17.93 0.0 0 0 752.1272 366.4833
  L 801.9471 366.3964
  A 17.93 17.93 0.0 0 0 819.8458 348.4351
  L 819.6141 215.7153
  Z"
/>
<path fill="#000000" d="
  M 910.42 382.33
  C 898.42 372.24 896.28 359.07 896.27 344.14
  Q 896.23 281.95 896.30 219.75
  Q 896.31 213.36 897.04 207.01
  C 899.31 187.15 914.36 174.90 932.75 170.61
  Q 938.58 169.26 949.48 169.26
  Q 972.64 169.25 995.80 169.24
  C 1010.34 169.23 1021.32 171.38 1032.59 179.17
  C 1046.89 189.05 1049.72 203.57 1049.73 220.16
  Q 1049.79 313.05 1049.74 343.25
  C 1049.73 351.86 1049.30 362.07 1045.18 370.36
  C 1039.28 382.24 1026.07 390.54 1013.59 393.52
  Q 1007.42 395.00 994.17 394.99
  Q 969.46 394.98 944.75 394.88
  Q 925.23 394.79 910.42 382.33
  Z
  M 1015.8144 215.8852
  A 18.10 18.10 0.0 0 0 997.6828 197.8168
  L 948.0029 197.9035
  A 18.10 18.10 0.0 0 0 929.9345 216.0350
  L 930.1656 348.4148
  A 18.10 18.10 0.0 0 0 948.2972 366.4832
  L 997.9771 366.3965
  A 18.10 18.10 0.0 0 0 1016.0455 348.2650
  L 1015.8144 215.8852
  Z"
/>
<path fill="#000000" d="
  M 1656.50 312.53
  C 1652.05 312.94 1647.00 306.71 1644.67 303.32
  Q 1619.10 266.24 1593.73 229.02
  C 1585.81 217.41 1592.47 202.72 1606.28 201.00
  C 1612.96 200.16 1615.17 203.94 1618.48 208.74
  Q 1654.05 260.27 1671.52 286.23
  C 1679.60 298.24 1668.78 311.39 1656.50 312.53
  Z"
/>
<path fill="#000000" d="
  M 1690.17 394.75
  C 1551.76 394.70 1413.35 394.52 1274.94 395.05
  Q 1205.59 395.31 1136.25 395.17
  C 1126.12 395.15 1114.54 395.14 1108.56 385.44
  C 1104.70 379.19 1104.03 373.01 1104.02 364.88
  Q 1103.97 291.99 1104.01 219.09
  Q 1104.01 218.51 1104.59 218.51
  L 1153.64 218.52
  Q 1154.25 218.52 1154.25 219.14
  L 1154.25 351.00
  Q 1154.25 352.25 1155.50 352.25
  L 1689.96 352.25
  Q 1690.41 352.25 1690.42 351.79
  L 1690.74 319.32
  Q 1690.75 318.44 1691.44 318.98
  L 1759.96 373.29
  Q 1760.40 373.64 1759.96 373.98
  L 1691.39 428.33
  Q 1690.76 428.83 1690.76 428.03
  L 1690.66 395.22
  Q 1690.65 394.75 1690.17 394.75
  Z"
/>
<circle fill="#000000" cx="581.34" cy="277.42" r="23.43"/>
</svg>
